<svg xmlns="http://www.w3.org/2000/svg" width="32" height="32" id="file"><path fill="#e9eded" fill-rule="evenodd" stroke="#4bbfeb" stroke-linecap="round" stroke-linejoin="round" d="M26.496 7.504v21.5c0 .83-.669 1.5-1.5 1.5h-18c-.83 0-1.5-.67-1.5-1.5v-26c0-.831.67-1.5 1.5-1.5h13.5z"></path><path fill="#4bbfeb" d="M5 24.004v5c0 1.108.892 2 2 2h18c1.108 0 2-.892 2-2v-5H5z"></path><path fill="#4bbfeb" stroke="#4bbfeb" stroke-linecap="round" stroke-linejoin="round" d="M26.496 7.504h-4.5c-.83 0-1.5-.67-1.5-1.5v-4.5"></path><path fill="#4bbfeb" d="M13.508 10.004c-1.1 0-2 .9-2 2v1c0 .563-.438 1-1 1a.5.5 0 0 0-.498.406.5.5 0 0 0 0 .002.5.5 0 0 0 .148.455.5.5 0 0 0 .078.06.5.5 0 0 0 .139.06.5.5 0 0 0 .098.015.5.5 0 0 0 .035.002c.562 0 1 .437 1 1v1c0 1.1.9 2 2 2a.5.5 0 1 0 0-1c-.563 0-1-.437-1-1v-1c0-.598-.273-1.133-.694-1.5a1.99 1.99 0 0 0 .694-1.5v-1c0-.563.437-1 1-1a.5.5 0 1 0 0-1zm4.933 0a.5.5 0 0 0 .051 1c.563 0 1 .437 1 1v1c0 .599.273 1.132.694 1.5-.42.367-.694.902-.694 1.5v1c0 .563-.437 1-1 1a.5.5 0 1 0 0 1c1.1 0 2-.9 2-2v-1c0-.563.438-1 1-1a.5.5 0 0 0 .324-.113.5.5 0 0 0 .038-.036.5.5 0 0 0-.362-.851c-.562 0-1-.437-1-1v-1c0-1.1-.9-2-2-2a.5.5 0 0 0-.05 0z" color="#000" font-family="sans-serif" font-weight="400" overflow="visible" style="line-height:normal;text-indent:0;text-align:start;text-decoration-line:none;text-decoration-style:solid;text-decoration-color:#000;text-transform:none;block-progression:tb;isolation:auto;mix-blend-mode:normal"></path><path fill="#e9eded" fill-rule="evenodd" d="M10.453 25.004a.5.5 0 0 0-.105.021c-1.302.116-2.344 1.17-2.344 2.479 0 1.315 1.053 2.372 2.363 2.478a.5.5 0 0 0 .145.022h1a.5.5 0 1 0 0-1h-.932c-.892 0-1.576-.67-1.576-1.5s.684-1.5 1.576-1.5h.924a.5.5 0 1 0 0-1h-1a.5.5 0 0 0-.05 0zm4 0a.5.5 0 0 0-.062.012c-.77.06-1.387.704-1.387 1.488 0 .79.627 1.44 1.406 1.49a.5.5 0 0 0 .094.01h1c.286 0 .5.214.5.5 0 .286-.214.5-.5.5h-2a.5.5 0 1 0 0 1h2a.5.5 0 0 0 .103-.012 1.503 1.503 0 0 0 1.397-1.488c0-.786-.62-1.434-1.393-1.49a.5.5 0 0 0-.107-.01h-1a.488.488 0 0 1-.5-.5c0-.286.214-.5.5-.5h2a.5.5 0 1 0 0-1h-1.965a.5.5 0 0 0-.035 0 .5.5 0 0 0-.05 0zm4.992 0a.5.5 0 0 0-.062.012c-.77.06-1.387.704-1.387 1.488 0 .79.628 1.44 1.406 1.49a.5.5 0 0 0 .094.01h1c.286 0 .5.214.5.5 0 .286-.214.5-.5.5h-2a.5.5 0 1 0 0 1h2a.5.5 0 0 0 .104-.012 1.503 1.503 0 0 0 1.396-1.488c0-.786-.62-1.434-1.392-1.49a.5.5 0 0 0-.108-.01h-1a.488.488 0 0 1-.5-.5c0-.286.214-.5.5-.5h2a.5.5 0 1 0 0-1h-1.965a.5.5 0 0 0-.035 0 .5.5 0 0 0-.05 0z" color="#000" font-family="sans-serif" font-weight="400" overflow="visible" style="line-height:normal;text-indent:0;text-align:start;text-decoration-line:none;text-decoration-style:solid;text-decoration-color:#000;text-transform:none;block-progression:tb;isolation:auto;mix-blend-mode:normal"></path></svg>