<svg xmlns="http://www.w3.org/2000/svg" width="32" height="32" id="file"><path fill="#e9eded" fill-rule="evenodd" stroke="#f05542" stroke-linecap="round" stroke-linejoin="round" d="M26.496 7.504v21.5c0 .83-.669 1.5-1.5 1.5h-18c-.83 0-1.5-.67-1.5-1.5v-26c0-.831.67-1.5 1.5-1.5h13.5z"></path><path fill="#f05542" d="M5 24.004v5c0 1.108.892 2 2 2h18c1.108 0 2-.892 2-2v-5H5z"></path><path fill="#f05542" stroke="#f05542" stroke-linecap="round" stroke-linejoin="round" d="M26.496 7.504h-4.5c-.83 0-1.5-.67-1.5-1.5v-4.5"></path><path fill="#f05542" fill-rule="evenodd" d="M13.523 12.002a.5.5 0 0 0-.343.15l-3.03 2.993a.5.5 0 0 0-.013.013.5.5 0 0 0 .052.744l2.99 2.955a.5.5 0 1 0 .704-.71l-2.674-2.643 2.674-2.64a.5.5 0 0 0-.36-.862zm4.932 0a.5.5 0 0 0-.344.861l2.672 2.64-2.672 2.643a.5.5 0 1 0 .703.711l2.989-2.955a.5.5 0 0 0 .17-.547.5.5 0 0 0-.04-.091.5.5 0 0 0-.019-.035.5.5 0 0 0-.006-.008.5.5 0 0 0-.006-.008.5.5 0 0 0-.025-.031.5.5 0 0 0-.006-.008.5.5 0 0 0-.027-.03.5.5 0 0 0-.002 0l-.02-.017a.5.5 0 0 0-.015-.016l-2.993-2.959a.5.5 0 0 0-.359-.15z" color="#000" font-family="sans-serif" font-weight="400" overflow="visible" style="line-height:normal;text-indent:0;text-align:start;text-decoration-line:none;text-decoration-style:solid;text-decoration-color:#000;text-transform:none;block-progression:tb;isolation:auto;mix-blend-mode:normal"></path><path fill="#e9eded" fill-rule="evenodd" d="M20.465 24.992a.5.5 0 0 0-.37.207L19 26.666l-1.098-1.467-.004.002a.5.5 0 0 0-.408-.199.5.5 0 0 0-.492.506v3.99a.5.5 0 1 0 1 0v-2.504l.498.664a.5.5 0 0 0 .902.139l.6-.8v2.501a.5.5 0 1 0 1 0v-3.963a.5.5 0 0 0-.482-.543.5.5 0 0 0-.051 0zm-11.973.01a.5.5 0 0 0-.492.506V29.498a.5.5 0 1 0 1 0v-1.494h2v1.494a.5.5 0 1 0 1 0v-1.916a.5.5 0 0 0 0-.16v-1.914a.5.5 0 0 0-.508-.506.5.5 0 0 0-.492.506v1.496H9v-1.496a.5.5 0 0 0-.508-.506zm6 0a.5.5 0 0 0-.05.002H13.5a.5.5 0 1 0 0 1h.5v3.494a.5.5 0 1 0 1 0v-3.494h.5a.5.5 0 1 0 0-1h-.947a.5.5 0 0 0-.06-.002zm7.998 0a.5.5 0 0 0-.492.506v3.953a.5.5 0 0 0 .02.182.5.5 0 0 0 0 .002.5.5 0 0 0 .003.013.5.5 0 0 0 .014.035.5.5 0 0 0 .027.057.5.5 0 0 0 .02.031.5.5 0 0 0 .006.01.5.5 0 0 0 .023.03.5.5 0 0 0 .026.027.5.5 0 0 0 .011.013.5.5 0 0 0 .026.022.5.5 0 0 0 .014.012.5.5 0 0 0 .011.01.5.5 0 0 0 .035.023.5.5 0 0 0 .077.039.5.5 0 0 0 .027.01.5.5 0 0 0 .168.027h1.986a.5.5 0 1 0 0-1h-1.494v-3.496a.5.5 0 0 0-.508-.506z" color="#000" font-family="sans-serif" font-weight="400" overflow="visible" style="line-height:normal;text-indent:0;text-align:start;text-decoration-line:none;text-decoration-style:solid;text-decoration-color:#000;text-transform:none;block-progression:tb;isolation:auto;mix-blend-mode:normal"></path></svg>