<svg xmlns="http://www.w3.org/2000/svg" viewBox="0 0 24 24" id="sun"><g data-name="Layer 2"><rect width="11" height="11" x="6.5" y="6.5" fill="#ffe5b0" rx="5.5"></rect><path fill="#eac553" d="M12 4.75A.75.75 0 0111.25 4V2a.75.75 0 011.5 0V4A.75.75 0 0112 4.75zM17.6 7.037a.75.75 0 01-.536-1.275l1.4-1.429a.75.75 0 111.07 1.051l-1.4 1.429A.75.75 0 0117.6 7.037zM20 12.59a.75.75 0 01-.015-1.5l2-.04a.742.742 0 01.765.735.751.751 0 01-.735.765l-2 .04zM19.28 19.605a.741.741 0 01-.513-.2L17.31 18.03a.75.75 0 011.028-1.092L19.8 18.31a.75.75 0 01-.515 1.3zM12.4 22.742a.749.749 0 01-.748-.72l-.08-2a.75.75 0 01.719-.779.735.735 0 01.779.719l.08 2a.748.748 0 01-.718.779zM5.291 20.166a.75.75 0 01-.557-1.253L6.076 17.43a.75.75 0 111.113 1.006L5.848 19.919A.751.751 0 015.291 20.166zM2.017 13.35a.75.75 0 01-.044-1.5l2-.121a.751.751 0 01.09 1.5l-2 .12zM5.961 7.5a.749.749 0 01-.492-.184L3.959 6.007a.75.75 0 01.984-1.133l1.51 1.313A.75.75 0 015.961 7.5zM12 17.75A5.75 5.75 0 1117.75 12 5.756 5.756 0 0112 17.75zm0-10A4.25 4.25 0 1016.25 12 4.254 4.254 0 0012 7.75z"></path></g></svg>